<?xml version="1.0" encoding="utf-8"?>
<!-- Generator: Adobe Illustrator 23.0.3, SVG Export Plug-In . SVG Version: 6.00 Build 0)  -->
<svg version="1.1" id="Layer_1" xmlns="http://www.w3.org/2000/svg" xmlns:xlink="http://www.w3.org/1999/xlink" x="0px" y="0px"
	 viewBox="0 0 40 43.5" style="enable-background:new 0 0 40 43.5;" xml:space="preserve">
<style type="text/css">
	.st0{fill:#F0A211;}
</style>
<title>icon-visualisation</title>
<path class="st0" d="M28.1,31.7c0.3,0.1,0.5,0.3,0.8,0.1c0.7-0.1,0.8,0.1,0.8,0.8c0,0.7-0.3,0.7-0.8,0.7c-0.4,0-0.8,0-1.2,0
	c-0.5,0-0.4,0.5-0.5,0.8c-0.1,0.4,0.3,0.4,0.5,0.3c0.7-0.1,0.7,0.3,0.7,0.8s-0.1,0.8-0.7,0.7C27,35.8,27,36.3,27,36.8
	c0,0.8,0.4,1.9-1.1,1.9c-0.3,0-0.1,0.4-0.3,0.5c-0.5,2.1-2.1,3.4-4,3.4s-3.4-1.2-4-3.4c0-0.1,0-0.5-0.3-0.5c-1.2,0-1.1-0.8-1.1-1.6
	c0-0.7,0.1-1.2-0.8-1.1c-0.7,0.1-0.4-0.4-0.4-0.8c0-0.3-0.1-0.8,0.5-0.7c0.3,0,0.7,0.1,0.7-0.4c0-0.4-0.1-0.8-0.7-0.7
	c-0.3,0-0.5,0-0.8,0c-0.5,0-1,0.1-1-0.7c0-0.8,0.4-0.8,1-0.8c0.1,0,0.4,0,0.7,0c-0.5-1.2-1.4-1.9-2.3-2.6c-2.7-1.9-4.8-4.7-5.8-7.8
	C6.9,20,6.6,18.5,6.5,17c0-0.4-0.3-1,0.5-1c0.7,0,1,0.1,1,1c0,4,1.6,7.1,4.4,9.9c0.5,0.5,1.2,1.1,1.9,1.5c0.8,0.5,1.6,1.4,2.1,2.3
	c0.4,1,1.1,1.2,2.2,1.2c2.3-0.1,4.7,0,6.9,0c0.5,0,1-0.1,1.4-0.7c0.7-1.2,1.6-2.2,2.9-3c5.1-3.6,7.1-9.8,5.4-15.5
	c-1.9-6-7.3-9.9-13.3-9.9c-0.7,0-1,0-1.1-0.8c0-1,0.7-0.7,1.1-0.7C29.3,1.2,36,7.3,36.9,14.8c0.7,6-1.6,11-6.6,14.6
	C29.4,30.1,28.6,30.6,28.1,31.7z M19.1,38.7c0.1,1.5,1,2.3,2.2,2.5c1.2,0.1,2.3-0.7,2.7-1.6c0.1-0.4,0.3-0.8-0.5-0.8
	C22.2,38.7,20.7,38.7,19.1,38.7z M21.6,33.4c-1.1,0-2.3,0-3.4,0c-0.3,0-0.7-0.3-0.5,0.3c0,0.3-0.1,0.8,0.5,0.8c2.3,0,4.7,0,7,0
	c0.5,0,0.5-0.4,0.5-0.7c0.1-0.7-0.4-0.4-0.7-0.4C24,33.4,22.9,33.4,21.6,33.4z M21.6,37.2c1.1,0,2.2,0,3.3,0c0.4,0,0.7-0.1,0.7-0.5
	c0-0.5-0.3-0.5-0.7-0.5c-2.2,0-4.4,0-6.6,0c-0.4,0-0.7,0-0.7,0.5s0.3,0.5,0.7,0.5C19.4,37.2,20.5,37.2,21.6,37.2z"/>
<path class="st0" d="M22.3,16.6c0-3,0-6,0-9.1c0-1.2,0.5-2.2,1.6-2.7c1.1-0.5,2.2-0.3,3.2,0.8c0.1,0.3,0.5,0.4,0.8,0.3
	c1.5-0.3,2.9,0.8,3,2.3c0,0.1,0,0.4,0,0.5c0,0.5,0.1,0.8,0.5,1.1c1.2,0.8,1.8,2.1,1.4,3.7c-0.1,0.4,0,0.7,0.4,1c1.5,1.4,1.5,3,0,4.4
	c-0.4,0.3-0.4,0.5-0.3,1c0.4,1.5-0.1,2.6-1.2,3.6c-0.4,0.3-0.7,0.5-0.5,1.1c0.1,1.6-1.1,2.9-2.9,2.9c-0.4,0-1,0.1-1.2,0.5
	c-0.8,0.8-1.8,1.1-2.9,0.7c-1.1-0.4-1.6-1.2-1.6-2.5C22.3,22.9,22.3,19.8,22.3,16.6z M23.7,16.6c0,3,0,6,0,9.1
	c0,0.7,0.1,1.2,0.8,1.5c0.4,0.1,1,0.1,1.4-0.3c0.7-0.5,0-1-0.1-1.4c0-0.3-0.4-0.8,0-0.8s1-0.4,1.2,0.4c0.1,0.5,0.8,1,1.4,0.8
	c0.5,0,1-0.4,1.1-1c0.1-0.7-0.1-1.2-0.8-1.4c-0.8-0.3-0.5-0.8-0.4-1.2c0.1-0.5,0.7-0.3,1.1,0c0.7,0.4,1.1,0.4,1.6-0.1
	c0.7-0.7,0.7-1.9,0-2.6c-1.1-1.1-2.7-0.8-3.3,0.8c-0.3,0.8-0.8,0.5-1.2,0.5c-0.5,0-0.3-0.5-0.1-0.8c0.4-1.9,2.7-3,4.7-2.2
	c0.4,0.3,0.8,0.5,1.2,0.1c0.5-0.4,0.7-1.1,0.3-1.6c-0.4-0.7-0.8-0.7-1.5-0.3c-2.1,1-4.3,0-4.8-2.1c0-0.3-0.1-0.7,0-0.8
	c0.3-0.3,0.7-0.1,1.1-0.1c0.5,0,0.3,0.5,0.5,0.8c0.5,1,1.6,1.4,2.6,0.8c1-0.4,1.4-1.5,1-2.5c-0.4-1-1-1.1-2.2-0.7
	c-0.3,0.1-0.7,0.4-0.8,0c-0.1-0.3-0.1-0.7-0.1-1.1c0-0.4,0.4-0.3,0.7-0.4c0.5-0.3,0.8-0.8,0.5-1.4c-0.1-0.4-0.4-0.8-0.8-0.8
	c-0.5-0.1-1.2,0-1.4,0.7c-0.3,0.8-0.8,0.8-1.4,0.5s-0.1-0.8,0-1.2c0.3-0.8,0-1.4-0.8-1.4c-1,0-1.2,0.7-1.2,1.5
	C23.7,10.7,23.7,13.7,23.7,16.6L23.7,16.6z"/>
<path class="st0" d="M21.1,16.7c0,3,0,6,0,9.1c0,1.2-0.5,2.2-1.6,2.7c-1.1,0.4-2.1,0.3-3-0.8c-0.4-0.4-0.7-0.4-1.1-0.4
	c-1.9,0-3-1.1-3-2.9c0-0.4-0.1-0.8-0.5-1c-1.2-1-1.8-2.2-1.4-3.7c0.1-0.4,0-0.7-0.3-1c-1.5-1.4-1.5-3,0-4.4c0.3-0.3,0.5-0.4,0.4-0.8
	c-0.4-1.5,0.1-2.7,1.4-3.7c0.4-0.3,0.5-0.7,0.5-1.1c0-1.8,1.2-3,3-2.9c0.4,0,0.7-0.1,1-0.4c1-1,2.1-1.2,3.2-0.8
	c1.1,0.5,1.6,1.5,1.6,2.7C21.1,10.7,21.1,13.7,21.1,16.7z M19.7,16.6c0-2.9,0-5.8,0-8.5c0-0.3,0-0.7,0-1C19.4,6.3,18.9,6,18,6.3
	c-0.8,0.3-0.8,0.8-0.4,1.5c0.3,0.3,0.4,0.8,0,1.1c-0.4,0.1-1.1,0.3-1.4-0.5c-0.1-0.7-0.8-0.8-1.4-0.7s-0.8,0.5-1,1
	c-0.1,0.7,0.1,1.2,0.7,1.4c0.8,0.3,0.7,1,0.5,1.4c-0.3,0.7-0.8,0.1-1.1,0c-0.7-0.4-1.2-0.3-1.6,0.3c-0.5,0.5-0.7,1.4-0.3,2.1
	c0.3,0.7,1,1.2,1.8,1.1c1,0,1.6-0.5,1.8-1.4c0.1-0.8,0.8-0.7,1.2-0.5c0.5,0.1,0.3,0.7,0.1,1c-0.5,1.9-2.7,2.9-4.7,2.1
	c-0.4-0.3-0.8-0.4-1.4,0c-0.5,0.5-0.7,1.1-0.3,1.6c0.4,0.5,0.8,0.7,1.5,0.3c2.1-1,4.4,0.1,4.8,2.2c0,0.3,0.3,0.7-0.3,0.8
	c-0.4,0-0.8,0.3-1.1-0.1c-0.1-0.3-0.1-0.5-0.3-0.7c-0.5-1-1.6-1.2-2.6-0.8c-0.8,0.5-1.2,1.5-0.8,2.5c0.4,0.8,1,1.1,2.2,0.7
	c0.3-0.1,0.7-0.3,1,0c0.1,0.3,0.1,0.7,0,1.1c0,0.1-0.4,0.3-0.5,0.4c-0.4,0.3-0.7,0.8-0.5,1.4c0.1,0.5,0.4,0.8,1,1
	c0.5,0.1,1.1-0.1,1.2-0.5c0.3-0.8,1-0.8,1.4-0.7c0.5,0.3,0.1,0.8,0,1.2c-0.4,0.8,0,1.1,0.7,1.2c0.8,0.3,1.5-0.4,1.5-1.6
	C19.7,22.7,19.7,19.6,19.7,16.6L19.7,16.6z"/>
<path class="st0" d="M4.8,16.1c-0.3-0.1-0.5-0.4-0.5-0.7c-0.1-1.5-1-2.5-2.5-2.6c-0.4,0-0.8-0.3-0.8-0.8c0-0.4,0.3-0.7,0.8-0.7
	c1.5-0.1,2.3-1,2.5-2.5c0-0.4,0.3-0.8,0.7-0.8s0.7,0.4,0.8,0.8c0.1,1.6,1.1,2.3,2.6,2.5c0.4,0,0.7,0.3,0.7,0.7l0,0
	c0,0.4-0.3,0.7-0.7,0.7l0,0c-1.6,0.1-2.5,1-2.6,2.6C5.8,15.8,5.5,16.1,4.8,16.1z M5,11.1c0,0.5-1.4,0.4-0.4,1.4c0.8,1,1-0.3,1.5-0.4
	L5,11.1z"/>
<path class="st0" d="M9,9.5C8.6,9.3,8.3,9,8.3,8.6C8,7,7.5,6.4,5.9,6.2C5.4,6,5,5.9,5,5.3s0.4-0.7,1-0.7c1.5-0.3,2.2-0.8,2.3-2.3
	c0.1-0.5,0.3-1,0.8-1c0.5,0,0.7,0.4,0.8,1c0.3,1.5,0.8,2.1,2.3,2.3c0.5,0.1,0.8,0.3,0.8,0.8s-0.4,0.5-1,0.7C10.8,6.3,10.1,7,9.8,8.5
	C9.7,9.2,9.4,9.5,9,9.5z M9,6.3c1.1-0.7,1-1.2,0-1.9l-0.8,1L9,6.3z"/>
</svg>
