<?xml version="1.0" encoding="utf-8"?>
<!-- Generator: Adobe Illustrator 23.0.3, SVG Export Plug-In . SVG Version: 6.00 Build 0)  -->
<svg version="1.1" id="Layer_1" xmlns="http://www.w3.org/2000/svg" xmlns:xlink="http://www.w3.org/1999/xlink" x="0px" y="0px"
	 viewBox="0 0 40 40" style="enable-background:new 0 0 40 40;" xml:space="preserve">
<style type="text/css">
	.st0{fill:#F0A211;}
</style>
<title>icon-motion</title>
<path class="st0" d="M20,0c10.6,0,19.4,8.8,19.4,19.5c0,10.6-8.8,19.4-19.4,19.3c-10.7,0-19.4-8.7-19.4-19.4v-0.1
	C0.7,8.8,9.3,0,20,0z M20,37.1c9.8,0,17.7-7.9,17.7-17.7S29.8,1.7,20,1.7S2.3,9.6,2.3,19.4l0,0C2.3,29.1,10.2,37.1,20,37.1z"/>
<path class="st0" d="M8.6,19.4c0,5.9,4.2,10.7,9.8,11.4c3,0.4,6.2-0.4,8.5-2.2c0.4-0.3,0.8-0.4,1-0.1c0.4,0.3,0.5,0.8,0.3,1.2
	c0,0.1-0.1,0.1-0.1,0.1c-0.5,0.5-1.2,0.9-1.8,1.3c-2,1-4.1,1.6-6.3,1.6c-7.2,0-13.1-5.9-13.1-13.2S12.8,6.3,20.1,6.3
	c6.3,0,11.7,4.6,12.8,10.7c0.7,3.7-0.1,7.1-2.4,10.1c-0.3,0.3-0.5,0.5-0.9,0.4c-0.7-0.1-0.9-0.8-0.5-1.3c0.5-0.8,1-1.6,1.4-2.5
	c1.7-4.5,1-8.4-2.1-12.1c-2-2.2-4.5-3.5-7.5-3.8c-6-0.7-11.4,3.5-12.5,9.6C8.6,18.2,8.6,18.7,8.6,19.4z"/>
<path class="st0" d="M16.3,19.4c0-0.9,0-2,0-2.9s0.7-1.7,1.6-1.6c0.3,0,0.4,0.1,0.7,0.3c1.7,1,3.5,2.1,5.2,3c0.7,0.4,0.9,1.3,0.5,2
	c-0.1,0.3-0.3,0.4-0.5,0.5c-1.8,1-3.5,2.1-5.4,3.1c-0.7,0.4-1.6,0.1-2-0.5c-0.1-0.1-0.1-0.4-0.1-0.5s0-0.3,0-0.5
	C16.3,21.2,16.3,20.3,16.3,19.4z M18,19.4c0,0.8,0,1.6,0,2.4c0,0.3,0.1,0.3,0.3,0.1c1.4-0.8,2.9-1.6,4.2-2.5c0.1-0.1,0.3-0.1,0-0.3
	c-1.4-0.8-2.9-1.6-4.2-2.5C18,16.5,18,16.5,18,16.8C18,17.8,18,18.6,18,19.4L18,19.4z"/>
</svg>
