<?xml version="1.0" encoding="utf-8"?>
<!-- Generator: Adobe Illustrator 23.0.3, SVG Export Plug-In . SVG Version: 6.00 Build 0)  -->
<svg version="1.1" id="Layer_1" xmlns="http://www.w3.org/2000/svg" xmlns:xlink="http://www.w3.org/1999/xlink" x="0px" y="0px"
	 viewBox="0 0 41.3 38.6" style="enable-background:new 0 0 41.3 38.6;" xml:space="preserve">
<style type="text/css">
	.st0{fill:#F0A211;}
</style>
<title>icon-autocad</title>
<g>
	<path class="st0" d="M20.6,38.6H5.1c-1.9,0-3.6-1.5-3.6-3.6l0,0c0-5.6,0-11.4,0-17c0-2.6,0-5.1,0-7.7c0-1.5,0.9-2.9,2.4-3.5
		c1.2-0.4,2.3-0.3,3.3,0.5c0.1,0.1,0.3,0.3,0.3,0.5c0,1.7,0,3.5,0,5.1v19.3c0,0.1,0,0.1,0,0.3c0,0.3-0.3,0.5-0.5,0.5
		c-0.1,0-0.1,0-0.3-0.1c-0.1-0.1-0.4-0.3-0.5-0.3c-1.3-0.6-2.8,0-3.5,1.3c-0.6,1.3,0,2.8,1.3,3.5c0.3,0.1,0.6,0.3,1,0.3
		c0.5,0,1,0,1.5,0h29.5c1.3,0,2.4-0.8,2.7-2.2c0.3-1.4-0.6-2.8-2-3.1c-0.6-0.1-1.4,0-2,0.4c-0.1,0.1-0.4,0.1-0.5,0.1
		c-0.1-0.1-0.3-0.3-0.3-0.5c0-5.4,0-10.8,0-16.1c0-2.8,0-5.5,0-8.3c0-0.3,0.1-0.5,0.4-0.8c1.7-1,4-0.6,5,1.2
		c0.4,0.6,0.5,1.3,0.5,1.9c0,6.1,0,12.3,0,18.3c0,2,0,4.2,0,6.3c0,0.9-0.4,1.9-1,2.6s-1.4,1.2-2.4,1.2c-4.1,0-8.2,0-12.2,0
		C24.2,38.6,20.6,38.6,20.6,38.6z M38.6,32.5v-0.1c0-0.8,0-1.5,0-2.3c0-0.8,0-1.7,0-2.4c0-1.5,0-3.2,0-4.7v-7.2c0-1.8,0-3.7,0-5.5
		s-2.2-3.1-3.8-2.2c-0.1,0-0.1,0.1-0.1,0.3c0,0.5,0,0.9,0,1.4c0,7.3,0,14.6,0,21.9c0,0.3,0,0.3,0.3,0.1c1.2-0.4,2.4-0.1,3.5,0.6
		C38.5,32.4,38.6,32.4,38.6,32.5z M2.5,32.5c0,0,0.1,0,0.1-0.1c1-0.9,2.3-1.2,3.6-0.8c0.3,0.1,0.3,0.1,0.3-0.1V9.4
		c0-0.4,0-0.8,0-1.2c0-0.1,0-0.3-0.1-0.3c-0.5-0.3-1-0.4-1.7-0.4c-1.3,0.1-2.3,1.3-2.3,2.7c0,2.4,0,5,0,7.4c0,2.2,0,4.4,0,6.5
		L2.5,32.5L2.5,32.5z"/>
	<path class="st0" d="M22.4,2.9c0,0.6,0,1.3,0,2c0,0.1,0,0.3,0.1,0.4c0.6,0.4,1.3,1.2,1.5,1.9c0.3,0.6,0.3,1.3,0.1,1.8
		c0,0.1,0,0.4,0,0.5c0.5,1.7,1.2,3.3,1.7,5c0.4,1.2,0.8,2.3,1.2,3.3c0.1,0.5,0.4,1,0.5,1.5c0,0.1,0.1,0.3,0.3,0.1c0.5,0,0.9,0,1.4,0
		c0.1,0,0.3,0,0.3-0.3c0-0.1,0-0.4,0-0.5c0-0.3,0.1-0.5,0.5-0.5c0.3,0,0.5,0.1,0.5,0.5c0,0.1,0,0.4,0,0.5c0,0.1,0,0.3,0.1,0.1
		c0.1,0,0.4,0,0.5,0c0.3,0,0.5,0.3,0.5,0.5c0,0.3-0.3,0.5-0.5,0.5c-0.1,0-0.3,0-0.5,0c-0.3,0-0.3,0-0.3,0.3c0,0.1,0,0.4,0,0.5
		c0,0.3-0.3,0.5-0.5,0.5c-0.3,0-0.5-0.3-0.5-0.5c0-0.1,0-0.4,0-0.5c0-0.1,0-0.1-0.1-0.1c-0.4,0-0.8,0-1.2,0c-0.1,0-0.1,0-0.1,0.1
		c0.6,1.9,1.3,3.7,1.9,5.6c0.1,0.5,0.4,1,0.5,1.5c0.1,1.5-0.3,2.8-1.4,3.8c-0.3,0.3-0.3,0.3-0.1,0.5c0.1,0.4,0.3,0.8,0.4,1.3
		c0.1,0.3,0,0.6-0.3,0.6c-0.3,0.1-0.5,0-0.6-0.4c-0.4-1-0.6-2-1-3.1c-0.5-1.4-0.9-2.8-1.4-4.2c-0.4-1.2-0.8-2.4-1.2-3.6
		c-0.3-0.8-0.5-1.5-0.8-2.3c0-0.1-0.1-0.3-0.3-0.1c-0.8,0-1.5,0-2.3,0c-0.1,0-0.3,0-0.3,0.3c0,0.1,0,0.4,0,0.5
		c0,0.3-0.3,0.5-0.5,0.5c-0.3,0-0.5-0.3-0.5-0.5c0-0.3,0-0.4,0-0.6c0-0.1,0-0.1-0.1-0.1c-0.8,0-1.5,0-2.4,0c-0.1,0-0.1,0.1-0.3,0.1
		c-0.3,0.6-0.5,1.4-0.6,2l-1,3.1c-0.3,0.9-0.6,1.8-0.9,2.6l-1.7,5c0,0.1-0.1,0.4-0.1,0.5c-0.1,0.3-0.4,0.4-0.6,0.3l0,0
		c-0.3-0.1-0.4-0.4-0.3-0.6c0.1-0.5,0.3-0.9,0.5-1.4c0-0.1,0-0.3-0.1-0.3c-0.9-0.8-1.5-1.9-1.5-3.1c0-0.6,0.1-1.3,0.3-1.9
		c0.6-1.8,1.3-3.6,1.9-5.4c0.1-0.3,0.1-0.5,0.3-0.8c0-0.1,0-0.1-0.1-0.1c-0.4,0-0.8,0-1.2,0c-0.3,0-0.5-0.3-0.5-0.5
		c0-0.3,0.3-0.5,0.5-0.5l0,0c0.5,0,1,0,1.4,0c0.1,0,0.3,0,0.3-0.3c0.5-1.4,0.9-2.7,1.4-4.1c0.6-2,1.4-4,2-6c0-0.1,0-0.3,0-0.4
		c-0.4-1.4,0.3-2.9,1.5-3.8c0.1-0.1,0.3-0.3,0.3-0.4c0-1.3,0-2.6,0-3.8C18.9,0.1,19,0,19.5,0h2.2c0.4,0,0.6,0.1,0.6,0.6
		C22.4,1.7,22.4,2.3,22.4,2.9z M11.7,28.6c0,0.8,0.3,1.7,0.9,2.3c0,0.1,0.1,0.3,0.3,0.1c0.1,0,0.1-0.1,0.1-0.3
		c0.5-1.4,1-2.9,1.4-4.4c0.6-2,1.4-4.1,2-6.1l1.4-4.4c0.5-1.4,0.9-2.7,1.4-4.1c0-0.1,0-0.1-0.1-0.3c-0.5-0.3-1-0.5-1.4-1
		c-0.1-0.1-0.1,0-0.1,0c-0.1,0.5-0.4,1-0.5,1.7c-0.5,1.7-1.2,3.2-1.7,4.9c-0.6,1.8-1.3,3.6-1.8,5.4c-0.5,1.7-1.2,3.2-1.7,4.9
		C11.9,27.8,11.7,28.2,11.7,28.6z M29.4,28.6c0-0.4,0-0.8-0.1-1c-0.5-1.4-0.9-2.7-1.4-4.1c-0.8-2.3-1.5-4.6-2.4-6.9
		c-0.6-1.9-1.3-3.7-1.9-5.6c0,0,0-0.1-0.1-0.1s-0.1,0.1-0.1,0.1c-0.3,0.4-0.6,0.6-1,0.8c-0.1,0.1-0.4,0.1-0.4,0.3
		c0,0.1,0.1,0.3,0.1,0.5c0.5,1.7,1.2,3.3,1.7,5c0.5,1.4,0.9,2.7,1.4,4.1c0.4,1.2,0.8,2.4,1.3,3.6c0.3,0.9,0.6,1.8,0.9,2.7
		c0.4,1.2,0.8,2.2,1.2,3.3c0,0.1,0.1,0.1,0.3,0C29,30.4,29.4,29.5,29.4,28.6z M22.2,19.6h0.9c0.3,0,0.3,0,0.1-0.3
		c-0.5-1.4-0.9-2.8-1.4-4.2c-0.4-1-0.6-2-1-2.9c0-0.1,0-0.1-0.1-0.3c-0.3-0.1-0.5,0-0.6,0.3l0,0c-0.4,1-0.8,2.2-1,3.2
		c-0.5,1.3-0.9,2.7-1.4,4c0,0.1,0,0.1,0.1,0.1c0.6,0,1.3,0,2,0c0.1,0,0.3,0,0.3-0.3c0-0.1,0-0.4,0-0.5c0-0.3,0.3-0.5,0.5-0.5l0,0
		c0.3,0,0.5,0.1,0.5,0.4l0,0c0,0.1,0,0.4,0,0.5c0,0.3,0.1,0.3,0.3,0.3C21.6,19.6,22,19.6,22.2,19.6z M20.6,11c0.4,0,0.8,0,1-0.3
		c1.3-0.6,1.9-2.2,1.3-3.5c-0.1-0.3-0.4-0.6-0.6-0.8c-0.1-0.1-0.1-0.1-0.3,0C21.7,6.9,21.5,7,21.1,7c-0.4,0-0.8,0-1.2,0
		c-0.4,0-0.8-0.1-0.9-0.5c-0.1-0.1-0.1-0.1-0.3,0c-0.8,0.8-1,1.8-0.6,2.8C18.5,10.2,19.5,11,20.6,11L20.6,11z M21.3,3.7
		c0-0.6,0-1.4,0-2c0-0.1,0-0.3-0.3-0.3c-0.4,0-0.8,0-1,0c-0.1,0-0.3,0-0.3,0.3c0,1.4,0,2.8,0,4.2c0,0.1,0.1,0.3,0.3,0.3
		c0.4,0,0.6,0,1,0c0.3,0,0.3,0,0.3-0.3C21.3,5,21.3,4.4,21.3,3.7L21.3,3.7z"/>
	<path class="st0" d="M11.6,13.8c-0.6,0-1.4,0-2,0c-0.4,0-0.5-0.1-0.5-0.5c0-0.3,0.1-0.5,0.5-0.5c0.1,0,0.1,0,0.3,0h3.8
		c0.1,0,0.3,0,0.4,0c0.3,0,0.4,0.3,0.4,0.5c0,0.3-0.1,0.4-0.4,0.5c-0.1,0-0.1,0-0.3,0H11.6L11.6,13.8z"/>
	<path class="st0" d="M29.5,13.8c-0.8,0-1.4,0-2.2,0c-0.3,0-0.5-0.1-0.5-0.4c0-0.3,0.1-0.5,0.3-0.5c0.1,0,0.3,0,0.3,0
		c1.4,0,2.7,0,4.1,0c0.4,0,0.6,0.1,0.6,0.5c0,0.4-0.3,0.5-0.5,0.5C30.9,13.8,30.3,13.8,29.5,13.8z"/>
</g>
</svg>
