<?xml version="1.0" encoding="utf-8"?>
<!-- Generator: Adobe Illustrator 23.0.3, SVG Export Plug-In . SVG Version: 6.00 Build 0)  -->
<svg version="1.1" id="Layer_1" xmlns="http://www.w3.org/2000/svg" xmlns:xlink="http://www.w3.org/1999/xlink" x="0px" y="0px"
	 viewBox="0 0 40 46.8" style="enable-background:new 0 0 40 46.8;" xml:space="preserve">
<style type="text/css">
	.st0{fill:#F0A211;}
</style>
<g>
	<title>icon-uiux</title>
	<g>
		<path class="st0" d="M19.2,6.8H8.4c-0.5,0-0.5,0-0.5,0.5c0,0.3,0,0.5,0,0.8c0,0.5-0.3,0.8-0.6,0.8c-0.4,0-0.5-0.3-0.5-0.6
			c0-1,0-2.1,0-3.2c0-0.5,0-1,0-1.7C7,1.4,8.4,0,10.5,0c5.9,0,11.7,0,17.6,0c0.5,0,1,0.1,1.4,0.3c1.3,0.5,2.2,1.8,2.2,3.3
			c0,1.4,0,2.8,0,4.2c0,0.5,0,0.5,0.5,0.5c1.4,0,2.8,0,4.2,0c1.2,0,2.1,0.4,2.6,1.4c0.3,0.4,0.4,0.9,0.4,1.3c0,5.3,0,10.4,0,15.7
			c0,1.4-1.3,2.7-2.7,2.7c-1.5,0-3.1,0-4.6,0c-0.4,0-0.4,0.1-0.4,0.4c0,1.5,0,3.1,0,4.8c0,2.1-1.5,3.6-3.6,3.6c-5.9,0-11.8,0-17.6,0
			c-2.1,0-3.6-1.5-3.6-3.6c0-2.7,0-5.3,0-8c0-0.1,0-0.3,0.1-0.5c0.1-0.3,0.4-0.4,0.8-0.3c0.1,0,0.3,0.1,0.3,0.3
			c0.1,0.1,0.1,0.4,0.1,0.5c0,1.3,0,2.4,0,3.7c0,0.4,0.1,0.4,0.4,0.4c7.2,0,14.5,0,21.7,0c0.4,0,0.4-0.1,0.4-0.4c0-1,0-1-1-1
			c-2.8,0-5.5,0-8.3,0c-1.8,0-3-1.2-3-2.8c0-5,0-10.1,0-15.2c0-1.5,1-3,3-3c2.8,0,5.8,0,8.6,0c0.5,0,0.5,0,0.5-0.5
			c0-0.9,0-0.9-0.9-0.9L19.2,6.8z M28.7,9.5c-2.6,0-5,0-7.6,0c-1.2,0-1.8,0.6-1.8,1.8c0,5,0,10.1,0,15.2c0,1.2,0.6,1.8,1.8,1.8
			c5,0,10.1,0,15.2,0c1.2,0,1.8-0.6,1.8-1.8c0-5,0-10.1,0-15.2c0-1.2-0.6-1.8-1.8-1.8C33.9,9.5,31.3,9.5,28.7,9.5L28.7,9.5z
			 M19.2,32H11c-0.9,0-1.8,0-2.7,0c-0.4,0-0.5,0.1-0.4,0.5c0,0.8,0,1.4,0,2.2c0,0.3,0,0.4,0.1,0.6c0.3,1.2,1.2,1.8,2.4,1.8
			c5.9,0,11.7,0,17.6,0c0.1,0,0.3,0,0.4,0c1,0,1.9-0.9,2.2-1.9c0.1-0.9,0-1.7,0-2.6c0-0.5,0-0.5-0.5-0.5L19.2,32z M19.2,5.7H25
			c1.7,0,3.5,0,5.1,0c0.3,0,0.4-0.1,0.4-0.4c0-0.5,0-1,0-1.5c0-1.5-1-2.6-2.6-2.6c-1.9,0-3.7,0-5.7,0c-4,0-8,0-12.1,0
			c-1.4,0-2.4,1-2.4,2.4c0,0.5,0,1,0,1.5s0,0.5,0.5,0.5H19.2z"/>
		<path class="st0" d="M13.6,13.4c0,0.4-0.1,0.6-0.4,1c-0.1,0.4,0,0.8,0.3,0.9h0.1c0.1,0,0.4,0.1,0.5,0.1c0.5,0.1,0.9,0.6,0.9,1.2
			c0,0.3,0,0.6,0,0.9c0,0.8-0.3,1.2-1,1.4c-0.3,0.1-0.6,0.1-0.8,0.5c-0.1,0.3-0.1,0.4,0,0.6c0.3,0.3,0.4,0.6,0.4,0.9
			c0,0.8-1.3,2.1-2.1,1.9c-0.3,0-0.5-0.1-0.8-0.4c-0.5-0.3-0.9,0-1,0.5c-0.1,0.5-0.3,0.9-0.8,1.2c-0.6,0.3-1.4,0.3-2.1,0
			c-0.5-0.1-0.6-0.6-0.8-1C6,23,5.9,22.9,5.6,22.7c-0.3-0.1-0.4,0-0.6,0.1c-0.3,0.1-0.6,0.3-0.9,0.3c-0.9-0.1-1.3-0.8-1.7-1.3
			c-0.4-0.5-0.3-1,0-1.4c0.4-0.5,0.1-1.2-0.5-1.3c-1-0.1-1.3-0.6-1.3-1.4c0-0.3,0-0.4,0-0.6c0-0.8,0.3-1.2,1-1.4
			c0.4-0.1,0.6-0.1,0.8-0.5c0-0.3,0.1-0.4,0-0.5C2.1,14.3,2,13.9,2,13.5c0-0.8,1.2-1.9,1.9-2.1c0.4,0,0.6,0.1,1,0.4
			c0.5,0.3,0.9,0.1,1-0.5c0.1-0.4,0.3-0.8,0.5-1c0.5-0.4,2.1-0.4,2.6,0c0.3,0.3,0.4,0.6,0.5,1c0.1,0.5,0.5,0.8,1,0.4
			c0.9-0.5,1.3-0.5,2.1,0.3c0.1,0.1,0.4,0.4,0.5,0.5C13.6,12.8,13.6,13.1,13.6,13.4z M11.8,22c0.3-0.1,0.4-0.4,0.6-0.5
			c0.3-0.3,0.3-0.4,0.1-0.6c-0.4-0.5-0.5-1.2-0.1-1.7c0,0,0,0,0-0.1c0.1-0.5,0.5-0.9,1-0.9c0.1,0,0.3,0,0.4-0.1
			c0.1,0,0.1-0.1,0.3-0.1c0.1-0.4,0.1-0.6,0-1c0-0.3-0.3-0.3-0.5-0.3c-0.8-0.1-1.3-0.5-1.3-1.2c0-0.1,0-0.1-0.1-0.3
			c-0.3-0.4-0.3-0.8,0-1.2c0.1,0,0.1-0.1,0.1-0.3c0.3-0.3,0.1-0.5-0.1-0.6c-0.6-0.6-0.4-0.6-1.3-0.1c-0.1,0-0.3,0.1-0.4,0.1
			c-0.1,0.1-0.3,0.1-0.5,0c-0.8-0.3-1.7-0.5-1.7-1.5v-0.1c0-0.1-0.1-0.3-0.3-0.3C7.2,11,7.2,11,6.9,11.9c0,0.1,0,0.1,0,0.3
			c0,0.3-0.3,0.4-0.5,0.6c-0.8,0.4-1.5,0.5-2.3-0.1c-0.1-0.1-0.3,0-0.4,0c-0.8,0.5-0.8,0.6-0.3,1.4c0.3,0.4,0.1,0.8,0,1.2
			c-0.3,0.8-0.6,1.3-1.5,1.4c-0.1,0-0.3,0.1-0.3,0.3c-0.3,0.6,0,1.2,0.6,1.3c0.6,0,1,0.3,1.2,0.8c0,0.1,0.1,0.3,0.3,0.4
			c0.3,0.4,0.1,0.6,0,1c-0.5,0.8-0.5,0.8,0.3,1.4c0.1,0.1,0.3,0.1,0.4,0c0.6-0.5,1.3-0.5,2.1-0.1c0.4,0.1,0.6,0.4,0.8,0.8
			c0.3,0.9,0.1,0.8,1.2,0.8c0.3,0,0.4-0.1,0.4-0.4c0.4-1.3,0.3-1,1.3-1.5c0.4-0.1,0.8-0.3,1.2,0C11.3,21.7,11.5,21.8,11.8,22z"/>
		<path class="st0" d="M28.7,15.8c-2.3,0-4.8,0-7.1,0c-0.8,0-0.9-0.1-0.9-0.9c0-1.2,0-2.2,0-3.3c0-0.5,0.1-0.8,0.8-0.8
			c0.8,0,1.5,0,2.2,0h11.7c0.1,0,0.4,0,0.5,0c0.4,0,0.6,0.3,0.6,0.6c0,1.2,0,2.4,0,3.6c0,0.5-0.3,0.6-0.8,0.6c-1.4,0-3,0-4.4,0
			L28.7,15.8z M28.7,14.6H35c0.5,0,0.5,0,0.5-0.5s0-1,0-1.5c0-0.5,0-0.5-0.5-0.5c-0.8,0-1.5,0-2.3,0H22.4c-0.5,0-0.5,0-0.5,0.5
			c0,0.5,0,1,0,1.5c0,0.6,0,0.6,0.5,0.6h6.3V14.6z"/>
		<path class="st0" d="M33.6,21.8c-0.8,0-1.5,0-2.3,0c-0.6,0-0.8-0.3-0.8-0.8c0-1.2,0-2.2,0-3.3c0-0.6,0.1-0.8,0.8-0.8
			c1.5,0,3.2,0,4.8,0c0.5,0,0.8,0.3,0.8,0.8c0,1.2,0,2.3,0,3.5c0,0.5-0.3,0.8-0.8,0.8C35.2,21.8,34.4,21.8,33.6,21.8z M33.6,20.7
			c0.5,0,1.2,0,1.7,0c0.3,0,0.4-0.1,0.4-0.4c0-0.6,0-1.3,0-1.9c0-0.3-0.1-0.4-0.4-0.4c-1,0-2.2,0-3.2,0c-0.4,0-0.4,0.1-0.4,0.4
			c0,0.6,0,1.3,0,1.8c0,0.3,0.1,0.4,0.4,0.4C32.5,20.7,33.1,20.7,33.6,20.7z"/>
		<path class="st0" d="M24,16.8c0.8,0,1.5,0,2.3,0c0.5,0,0.8,0.3,0.8,0.8c0,1.2,0,2.3,0,3.5c0,0.5-0.3,0.8-0.8,0.8
			c-1.5,0-3.2,0-4.8,0c-0.5,0-0.8-0.3-0.8-0.8c0-1.2,0-2.3,0-3.5c0-0.5,0.1-0.8,0.6-0.8C22.4,16.8,23.2,16.8,24,16.8L24,16.8z
			 M24,20.7c0.5,0,1.2,0,1.7,0c0.3,0,0.4-0.1,0.4-0.4c0-0.6,0-1.3,0-1.9c0-0.3-0.1-0.4-0.4-0.4c-1.2,0-2.2,0-3.3,0
			c-0.3,0-0.4,0.1-0.4,0.4c0,0.6,0,1.3,0,1.9c0,0.3,0.1,0.4,0.4,0.4C23,20.7,23.5,20.7,24,20.7z"/>
		<path class="st0" d="M24,24c-0.8,0-1.5,0-2.3,0c-0.1,0-0.3,0-0.4,0c-0.3,0-0.5-0.3-0.5-0.6c0-0.3,0.3-0.5,0.5-0.5c0.5,0,1,0,1.5,0
			c1.2,0,2.3,0,3.5,0c0.4,0,0.6,0.3,0.6,0.5c0,0.4-0.3,0.6-0.6,0.6C25.7,24,24.8,24,24,24z"/>
		<path class="st0" d="M33.6,22.9c0.8,0,1.7,0,2.4,0c0.4,0,0.6,0.3,0.6,0.5c0,0.4-0.3,0.5-0.6,0.5c-1.7,0-3.2,0-4.9,0
			c-0.4,0-0.6-0.3-0.6-0.5c0-0.4,0.3-0.5,0.6-0.5C31.9,22.9,32.8,22.9,33.6,22.9z"/>
		<path class="st0" d="M32.8,25.2c0.5,0,1.2,0,1.7,0c0.4,0,0.6,0.3,0.6,0.5s-0.3,0.5-0.5,0.6l0,0c-1.2,0-2.3,0-3.6,0
			c-0.3,0-0.4-0.1-0.5-0.4c-0.1-0.3,0-0.4,0.1-0.5c0.1-0.1,0.4-0.1,0.5-0.1C31.7,25.2,32.2,25.2,32.8,25.2L32.8,25.2z"/>
		<path class="st0" d="M23.2,25.2c0.5,0,1,0,1.7,0c0.4,0,0.6,0.3,0.6,0.5c0,0.4-0.3,0.5-0.6,0.5c-1,0-2.1,0-3.1,0h-0.1
			c-0.4,0-0.6-0.3-0.6-0.6c0-0.3,0.3-0.5,0.6-0.5C22.1,25.2,22.6,25.2,23.2,25.2z"/>
		<path class="st0" d="M20.9,34.4c0,1-0.8,1.8-1.8,1.8c-1,0-1.8-0.8-1.8-1.8c0-1,0.8-1.8,1.8-1.8C20.1,32.8,20.9,33.5,20.9,34.4
			L20.9,34.4z M19.7,34.4c0-0.4-0.3-0.6-0.6-0.6s-0.6,0.3-0.6,0.6s0.3,0.6,0.5,0.6C19.5,35.1,19.7,34.8,19.7,34.4L19.7,34.4z"/>
		<path class="st0" d="M19.1,4c-0.8,0-1.5,0-2.4,0c-0.3,0-0.5,0-0.6-0.4c-0.1-0.4,0-0.6,0.4-0.8c0.1,0,0.4,0,0.5,0c1.5,0,3,0,4.5,0
			c0.1,0,0.4,0,0.5,0c0.3,0.1,0.4,0.3,0.4,0.5s-0.1,0.4-0.4,0.5c-0.1,0-0.3,0-0.5,0C20.6,4,19.9,4,19.1,4L19.1,4z"/>
		<path class="st0" d="M7.8,20.9c-1.9,0-3.5-1.5-3.5-3.5S5.9,14,7.8,14s3.5,1.5,3.5,3.5l0,0C11.4,19.3,9.9,20.9,7.8,20.9
			C7.9,20.9,7.8,20.9,7.8,20.9z M7.8,15c-1.3,0-2.3,1-2.3,2.3s1,2.4,2.4,2.4c1.3,0,2.3-1,2.3-2.4C10.2,16.1,9.2,15,7.8,15z"/>
	</g>
</g>
</svg>
