<?xml version="1.0" encoding="utf-8"?>
<!-- Generator: Adobe Illustrator 23.0.3, SVG Export Plug-In . SVG Version: 6.00 Build 0)  -->
<svg version="1.1" id="Layer_1" xmlns="http://www.w3.org/2000/svg" xmlns:xlink="http://www.w3.org/1999/xlink" x="0px" y="0px"
	 viewBox="0 0 40 40" style="enable-background:new 0 0 40 40;" xml:space="preserve">
<style type="text/css">
	.st0{fill:#F0A211;}
</style>
<path class="st0" d="M17.5,35.7c-0.4,0-0.7,0.3-0.7,0.7s0.3,0.7,0.7,0.7V35.7z M22.5,37c0.4,0,0.7-0.3,0.7-0.7s-0.3-0.7-0.7-0.7V37z
	 M9.4,29.4c0,0.4,0.3,0.7,0.7,0.7s0.7-0.3,0.7-0.7H9.4z M10.8,32.4c0-0.4-0.3-0.7-0.7-0.7S9.4,32,9.4,32.4H10.8z M29.2,7.6
	c0,0.4,0.3,0.7,0.7,0.7c0.4,0,0.7-0.3,0.7-0.7C30.6,7.6,29.2,7.6,29.2,7.6z M30.6,10.6c0-0.4-0.3-0.7-0.7-0.7
	c-0.4,0-0.7,0.3-0.7,0.7H30.6z M27.5,38.6h-15V40h15V38.6z M12.5,1.4h3V0h-3V1.4z M14.9,1.7h1.4v-1h-1.4V1.7z M16.5,3.3h7V2h-7V3.3z
	 M15.5,1.4h8.9V0h-8.9V1.4z M24.4,1.4h3V0h-3V1.4z M25.1,1.7v-1h-1.4v1H25.1z M17.5,37h5v-1.4h-5V37z M10.8,29.4V3.1H9.4v26.3H10.8z
	 M10.8,36.9v-4.5H9.4v4.5H10.8z M29.2,3.1v4.5h1.4V3.1H29.2z M29.2,10.6v26.3h1.4V10.6H29.2z M23.5,3.3c0.9,0,1.6-0.7,1.6-1.6h-1.4
	c0,0.2-0.1,0.3-0.3,0.3L23.5,3.3L23.5,3.3z M12.5,38.6c-1,0-1.7-0.8-1.7-1.7H9.4c0,1.7,1.4,3.1,3.1,3.1V38.6z M27.5,40
	c1.7,0,3.1-1.4,3.1-3.1h-1.4c0,1-0.8,1.7-1.7,1.7V40z M27.5,1.4c1,0,1.7,0.8,1.7,1.7h1.4c0-1.7-1.4-3.1-3.1-3.1V1.4z M14.9,1.7
	c0,0.9,0.7,1.6,1.6,1.6V2c-0.2,0-0.3-0.1-0.3-0.3H14.9z M12.5,0c-1.7,0-3.1,1.4-3.1,3.1h1.4c0-1,0.8-1.7,1.7-1.7
	C12.5,1.4,12.5,0,12.5,0z"/>
</svg>
