<?xml version="1.0" encoding="utf-8"?>
<!-- Generator: Adobe Illustrator 23.0.3, SVG Export Plug-In . SVG Version: 6.00 Build 0)  -->
<svg version="1.1" id="Layer_1" xmlns="http://www.w3.org/2000/svg" xmlns:xlink="http://www.w3.org/1999/xlink" x="0px" y="0px"
	 viewBox="0 0 42 32" style="enable-background:new 0 0 42 32;" xml:space="preserve">
<style type="text/css">
	.st0{opacity:0.15;fill-rule:evenodd;clip-rule:evenodd;fill:url(#SVGID_1_);enable-background:new    ;}
	.st1{fill:url(#SVGID_2_);stroke:url(#SVGID_3_);stroke-width:0.25;}
	.st2{fill:#F0A211;stroke:url(#SVGID_4_);stroke-width:0.25;}
	.st3{fill:#F0A211;stroke:url(#SVGID_5_);stroke-width:0.25;}
	.st4{fill:#F0A211;stroke:url(#SVGID_6_);stroke-width:0.25;}
</style>
<linearGradient id="SVGID_1_" gradientUnits="userSpaceOnUse" x1="11.0963" y1="31.3063" x2="29.9664" y2="-1.0476" gradientTransform="matrix(1 0 0 -1 0 31.89)">
	<stop  offset="0.2593" style="stop-color:#FFDB6E"/>
	<stop  offset="1" style="stop-color:#FFBC5E"/>
</linearGradient>
<path class="st0" d="M1.5,6.9c0-1.1,0.9-2,2-2h34.8c1.1,0,2,0.9,2,2v21c0,1.1-0.9,2-2,2H24.2c4.2-1.4,7.3-5.3,7.3-10
	c0-5.8-4.7-10.5-10.5-10.5s-10.5,4.7-10.5,10.5c0,4.7,3.1,8.6,7.3,10H3.5c-1.1,0-2-0.9-2-2V6.9z M21,24.9c2.8,0,5-2.2,5-5
	s-2.2-5-5-5s-5,2.2-5,5S18.2,24.9,21,24.9z"/>
<linearGradient id="SVGID_2_" gradientUnits="userSpaceOnUse" x1="0.7484" y1="11.768" x2="2.3605" y2="11.2693" gradientTransform="matrix(1 0 0 -1 0 31.89)">
	<stop  offset="0.2593" style="stop-color:#FFDB6E"/>
	<stop  offset="1" style="stop-color:#FFBC5E"/>
</linearGradient>
<linearGradient id="SVGID_3_" gradientUnits="userSpaceOnUse" x1="0.7484" y1="11.768" x2="2.3605" y2="11.2693" gradientTransform="matrix(1 0 0 -1 0 31.89)">
	<stop  offset="0.2593" style="stop-color:#FFDB6E"/>
	<stop  offset="1" style="stop-color:#FFBC5E"/>
</linearGradient>
<path class="st1" d="M2,21.6C2,21.8,1.8,22,1.6,22s-0.5-0.2-0.5-0.5v-2.4c0-0.3,0.2-0.5,0.5-0.5S2,18.9,2,19.2V21.6z"/>
<linearGradient id="SVGID_4_" gradientUnits="userSpaceOnUse" x1="7.6732" y1="34.0028" x2="32.0881" y2="-1.7061" gradientTransform="matrix(1 0 0 -1 0 31.89)">
	<stop  offset="0.2593" style="stop-color:#FFDB6E"/>
	<stop  offset="1" style="stop-color:#FFBC5E"/>
</linearGradient>
<path class="st2" d="M38.7,4.7h-2.4V4.4c0-0.8-0.6-1.4-1.4-1.4h-0.2V2.3c0-0.8-0.6-1.4-1.4-1.4h-2.8c-0.8,0-1.4,0.6-1.4,1.4V3h-0.2
	c-0.8,0-1.4,0.6-1.4,1.4v0.3H19V4.1c0-0.8-0.6-1.4-1.4-1.4h-1.1c-0.8,0-1.4,0.6-1.4,1.4v0.6h-1.4V3.3c0-0.8-0.6-1.4-1.4-1.4H6.1
	c-0.8,0-1.4,0.6-1.4,1.4v1.4H3.3C2,4.7,1,5.7,1,7v9.7c0,0.3,0.3,0.6,0.6,0.6s0.6-0.3,0.6-0.6v-5.6h3.2c0.3,0.9,1.1,1.6,2.1,1.6
	c1,0,1.9-0.7,2.1-1.6h4.7c-2.7,2-4.5,5.3-4.5,8.9c0,2.4,0.8,4.6,2,6.4H2.2v-2.3c0-0.3-0.3-0.6-0.6-0.6S1,23.8,1,24.1v3.7
	C1,29,2,30,3.3,30h13c1.4,0.7,3.1,1.1,4.8,1.1c1.7,0,3.3-0.4,4.8-1.1c0,0,0,0,0,0h13c1.2,0,2.3-1,2.3-2.3V7C41,5.7,40,4.7,38.7,4.7z
	 M30.2,2.3c0-0.1,0.1-0.2,0.2-0.2h2.8c0.1,0,0.2,0.1,0.2,0.2V3h-3.3L30.2,2.3L30.2,2.3z M28.5,4.4c0-0.1,0.1-0.2,0.2-0.2h6.1
	c0.1,0,0.2,0.1,0.2,0.2v0.3h-6.6L28.5,4.4L28.5,4.4z M16.2,4.1c0-0.1,0.1-0.2,0.2-0.2h1.1c0.1,0,0.2,0.1,0.2,0.2v0.6h-1.6V4.1z
	 M5.8,3.3C5.8,3.1,6,3,6.1,3h6.1c0.1,0,0.2,0.1,0.2,0.2v1.4H5.8V3.3z M7.5,11.6c-0.6,0-1.1-0.5-1.1-1.1c0-0.6,0.5-1.1,1.1-1.1
	c0.6,0,1.1,0.5,1.1,1.1C8.6,11.1,8.1,11.6,7.5,11.6z M9.7,9.9C9.4,9,8.6,8.3,7.5,8.3S5.6,9,5.4,9.9H2.2V7c0-0.6,0.5-1.1,1.1-1.1
	h35.5c0.6,0,1.1,0.5,1.1,1.1v2.9h-1.7V7.8c0-0.3-0.3-0.6-0.6-0.6H32c-0.3,0-0.6,0.3-0.6,0.6v2.1h-5.7c-1.5-0.7-3.1-1.1-4.7-1.1
	c-1.7,0-3.3,0.4-4.7,1.1H9.7z M32.6,9.9V8.4h4.3v1.5H32.6z M3.3,28.9c-0.6,0-1.1-0.5-1.1-1.1v-0.2h10.7c0.4,0.5,0.9,0.9,1.4,1.3H3.3
	z M11,20c0-5.5,4.5-10,10-10c2.8,0,5.6,1.2,7.5,3.4c0.2,0.2,0.6,0.3,0.8,0.1c0.2-0.2,0.3-0.6,0.1-0.8c-0.5-0.6-1.1-1.1-1.7-1.5h12.2
	v15.3h-9.7c0.9-1.3,1.5-2.7,1.8-4.3h1.5c0.9,0,1.6-0.7,1.6-1.6v-1.5c0-0.9-0.7-1.6-1.6-1.6h-1.6c-0.2-0.9-0.5-1.8-1-2.7
	c-0.2-0.3-0.5-0.4-0.8-0.2c-0.3,0.2-0.4,0.5-0.2,0.8c0.7,1.4,1.1,3,1.1,4.6c0,5.5-4.5,10-10,10C15.5,29.9,11,25.5,11,20z M32,18.7
	h1.4c0.2,0,0.4,0.2,0.4,0.4v1.5c0,0.2-0.2,0.4-0.4,0.4h-1.4c0-0.3,0-0.6,0-0.9C32.1,19.5,32.1,19.1,32,18.7z M38.7,28.9H27.7
	c0.5-0.4,1-0.8,1.4-1.3h10.7v0.2C39.8,28.4,39.3,28.9,38.7,28.9z"/>
<linearGradient id="SVGID_5_" gradientUnits="userSpaceOnUse" x1="14.0434" y1="19.5969" x2="27.4336" y2="4.8044" gradientTransform="matrix(1 0 0 -1 0 31.89)">
	<stop  offset="0.2593" style="stop-color:#FFDB6E"/>
	<stop  offset="1" style="stop-color:#FFBC5E"/>
</linearGradient>
<path class="st3" d="M13.2,20c0-4.3,3.5-7.8,7.8-7.8s7.8,3.5,7.8,7.8c0,4.3-3.5,7.8-7.8,7.8S13.2,24.3,13.2,20z M14.2,20
	c0,3.8,3.1,6.8,6.8,6.8s6.8-3.1,6.8-6.8s-3.1-6.8-6.8-6.8S14.2,16.2,14.2,20z"/>
<linearGradient id="SVGID_6_" gradientUnits="userSpaceOnUse" x1="16.1751" y1="17.2419" x2="25.462" y2="6.9822" gradientTransform="matrix(1 0 0 -1 0 31.89)">
	<stop  offset="0.2593" style="stop-color:#FFDB6E"/>
	<stop  offset="1" style="stop-color:#FFBC5E"/>
</linearGradient>
<path class="st4" d="M15.6,20c0-3,2.4-5.4,5.4-5.4c3,0,5.4,2.4,5.4,5.4c0,3-2.4,5.4-5.4,5.4S15.6,22.9,15.6,20z M16.5,20
	c0,2.5,2,4.5,4.5,4.5s4.5-2,4.5-4.5c0-2.5-2-4.5-4.5-4.5S16.5,17.5,16.5,20z"/>
</svg>
